<svg aria-hidden="true" style="position: absolute; width: 0; height: 0; overflow: hidden;" version="1.1"
    xmlns="http://www.w3.org/2000/svg" xmlns:xlink="http://www.w3.org/1999/xlink">
    <defs>
        <symbol id="instagram" viewBox="0 0 32 32">
            <path
                d="M28.718 10.756c-0.016-1.074-0.215-2.14-0.596-3.145-0.667-1.716-2.024-3.073-3.743-3.737-0.994-0.373-2.044-0.573-3.108-0.596-1.368-0.061-1.801-0.078-5.273-0.078s-3.916 0-5.274 0.078c-1.062 0.023-2.112 0.223-3.106 0.596-1.719 0.664-3.078 2.021-3.743 3.737-0.374 0.992-0.576 2.041-0.596 3.101-0.061 1.367-0.080 1.8-0.080 5.265s0 3.909 0.080 5.265c0.021 1.062 0.222 2.109 0.596 3.104 0.667 1.714 2.024 3.071 3.744 3.735 0.989 0.386 2.040 0.605 3.106 0.639 1.369 0.061 1.803 0.079 5.274 0.079s3.916 0 5.274-0.079c1.062-0.021 2.112-0.221 3.108-0.595 1.719-0.666 3.076-2.022 3.743-3.737 0.374-0.994 0.574-2.041 0.596-3.104 0.061-1.365 0.080-1.798 0.080-5.265-0.003-3.466-0.003-3.906-0.082-5.264zM15.991 22.531c-3.631 0-6.572-2.936-6.572-6.561s2.941-6.561 6.572-6.561c3.628 0 6.572 2.936 6.572 6.561s-2.944 6.561-6.572 6.561zM22.825 10.696c-0.849 0-1.533-0.684-1.533-1.53s0.684-1.53 1.533-1.53c0.846 0 1.531 0.684 1.531 1.53s-0.685 1.53-1.531 1.53z">
            </path>
            <path
                d="M15.991 19.976c2.211 0 4.004-1.793 4.004-4.004s-1.793-4.004-4.004-4.004c-2.211 0-4.004 1.793-4.004 4.004s1.793 4.004 4.004 4.004z">
            </path>
        </symbol>
        <symbol id="plus" viewBox="0 0 32 32">
            <path fill="none" stroke="#59b17a" style="stroke: var(--color1, #59b17a)" stroke-linejoin="round"
                stroke-linecap="round" stroke-miterlimit="4" stroke-width="3.2" d="M16 6.667v18.667"></path>
            <path fill="none" stroke="#59b17a" style="stroke: var(--color1, #59b17a)" stroke-linejoin="round"
                stroke-linecap="round" stroke-miterlimit="4" stroke-width="3.2" d="M6.665 16h18.667"></path>
        </symbol>
        <symbol id="minus" viewBox="0 0 32 32">
            <path fill="none" stroke="#59b17a" style="stroke: var(--color1, #59b17a)" stroke-linejoin="round"
                stroke-linecap="round" stroke-miterlimit="4" stroke-width="3.2" d="M6.665 16h18.667"></path>
        </symbol>
        <symbol id="facebook" viewBox="0 0 32 32">
            <path
                d="M19.518 4.64c0.24 0 0.48 0 0.96 0v3.6c-0.24 0-0.72 0-1.2 0s-0.96 0-1.2 0.24c-0.24 0.24-0.24 0.48-0.24 1.040 0 0.48 0 0.8 0 1.28h2.64v3.040h-2.64v13.2h-4.080v-13.28h-2.16v-3.040h2.16v-1.040c0-1.76 0.24-3.040 0.72-3.6 0.72-1.040 2.16-1.52 4.32-1.52 0.24 0.080 0.48 0.080 0.72 0.080z">
            </path>
        </symbol>
        <symbol id="star" viewBox="0 0 32 32">
            <path stroke-linejoin="miter" stroke-linecap="butt" stroke-miterlimit="4" stroke-width="2.4"
                d="M19.6 9.395c0.318 0.603 0.898 1.024 1.57 1.141l7.6 1.313-5.375 5.535c-0.475 0.489-0.697 1.171-0.6 1.846l1.098 7.635-6.922-3.402-0.234-0.1c-0.476-0.169-0.996-0.169-1.473 0l-0.234 0.1-6.924 3.402 1.1-7.635c0.097-0.675-0.125-1.357-0.6-1.846l-5.377-5.535 7.602-1.313c0.672-0.116 1.252-0.538 1.57-1.141l3.6-6.822 3.6 6.822z">
            </path>
        </symbol>
        <symbol id="x" viewBox="0 0 32 32">
            <path stroke-linejoin="round" stroke-linecap="round" stroke-miterlimit="4" stroke-width="2"
                d="M24 8l-16 16"></path>
            <path stroke-linejoin="round" stroke-linecap="round" stroke-miterlimit="4" stroke-width="2" d="M8 8l16 16">
            </path>
        </symbol>
        <symbol id="burger" viewBox="0 0 32 32">
            <path stroke-linejoin="round" stroke-linecap="round" stroke-miterlimit="4" stroke-width="2"
                d="M28.338 16.207h-24"></path>
            <path stroke-linejoin="round" stroke-linecap="round" stroke-miterlimit="4" stroke-width="2"
                d="M28.338 11.007h-24"></path>
            <path stroke-linejoin="round" stroke-linecap="round" stroke-miterlimit="4" stroke-width="2"
                d="M28.338 21.407h-24"></path>
        </symbol>
        <symbol id="search" viewBox="0 0 32 32">
            <path stroke-linejoin="round" stroke-linecap="round" stroke-miterlimit="4" stroke-width="3"
                d="M14.667 25.333c5.891 0 10.667-4.776 10.667-10.667s-4.776-10.667-10.667-10.667c-5.891 0-10.667 4.776-10.667 10.667s4.776 10.667 10.667 10.667z">
            </path>
            <path stroke-linejoin="round" stroke-linecap="round" stroke-miterlimit="4" stroke-width="3"
                d="M28.003 27.999l-5.8-5.8"></path>
        </symbol>
        <symbol id="filter" viewBox="0 0 32 32">
            <path stroke-linejoin="round" stroke-linecap="round" stroke-miterlimit="4" stroke-width="3.4286"
                d="M29.327 4h-26.667l10.667 12.613v8.72l5.333 2.667v-11.387l10.667-12.613z"></path>
        </symbol>
        <symbol id="chevron-down" viewBox="0 0 32 32">
            <path stroke-linejoin="round" stroke-linecap="round" stroke-miterlimit="4" stroke-width="3"
                d="M8 12l8 8 8-8"></path>
        </symbol>
        <symbol id="lightning" viewBox="0 0 32 32">
            <path stroke-linejoin="round" stroke-linecap="round" stroke-miterlimit="4" stroke-width="2.4"
                d="M17.333 2.667l-11.875 14.25c-0.465 0.558-0.698 0.837-0.701 1.073-0.003 0.205 0.088 0.4 0.248 0.529 0.183 0.148 0.547 0.148 1.273 0.148h9.723l-1.333 10.667 11.875-14.251c0.465-0.558 0.698-0.837 0.701-1.073 0.003-0.205-0.088-0.4-0.248-0.529-0.183-0.148-0.547-0.148-1.273-0.148h-9.723l1.333-10.667z">
            </path>
        </symbol>
        <symbol id="basket" viewBox="0 0 32 32">
            <path stroke-linejoin="round" stroke-linecap="round" stroke-miterlimit="4" stroke-width="3"
                d="M12.005 29.333c0.736 0 1.333-0.597 1.333-1.333s-0.597-1.333-1.333-1.333c-0.736 0-1.333 0.597-1.333 1.333s0.597 1.333 1.333 1.333z">
            </path>
            <path stroke-linejoin="round" stroke-linecap="round" stroke-miterlimit="4" stroke-width="3"
                d="M26.661 29.333c0.736 0 1.333-0.597 1.333-1.333s-0.597-1.333-1.333-1.333c-0.736 0-1.333 0.597-1.333 1.333s0.597 1.333 1.333 1.333z">
            </path>
            <path stroke-linejoin="round" stroke-linecap="round" stroke-miterlimit="4" stroke-width="3"
                d="M1.328 1.334h5.333l3.573 17.853c0.122 0.614 0.456 1.165 0.943 1.558s1.098 0.601 1.723 0.589h12.96c0.626 0.012 1.236-0.196 1.723-0.589s0.821-0.944 0.943-1.558l2.133-11.187h-22.667">
            </path>
        </symbol>
        <symbol id="phone" viewBox="0 0 32 32">
            <path stroke-linejoin="round" stroke-linecap="round" stroke-miterlimit="4" stroke-width="2.6667"
                d="M29.33 22.56v4c0.002 0.371-0.075 0.739-0.223 1.079s-0.367 0.646-0.641 0.897c-0.274 0.251-0.597 0.442-0.948 0.561s-0.725 0.163-1.094 0.13c-4.103-0.446-8.044-1.848-11.507-4.093-3.222-2.047-5.953-4.779-8-8-2.253-3.478-3.656-7.439-4.093-11.56-0.033-0.369 0.010-0.74 0.129-1.091s0.308-0.673 0.558-0.947c0.25-0.273 0.553-0.492 0.892-0.641s0.705-0.227 1.075-0.227h4c0.647-0.006 1.274 0.223 1.765 0.645s0.811 1.008 0.902 1.649c0.169 1.28 0.482 2.537 0.933 3.747 0.179 0.477 0.218 0.996 0.112 1.495s-0.353 0.956-0.712 1.319l-1.693 1.693c1.898 3.338 4.662 6.102 8 8l1.693-1.693c0.363-0.359 0.82-0.605 1.319-0.712s1.017-0.067 1.494 0.112c1.21 0.451 2.467 0.764 3.747 0.933 0.648 0.091 1.239 0.418 1.662 0.917s0.647 1.136 0.631 1.79z">
            </path>
        </symbol>
        <symbol id="map-pin" viewBox="0 0 32 32">
            <path stroke-linejoin="round" stroke-linecap="round" stroke-miterlimit="4" stroke-width="2.6667"
                d="M28 13.333c0 9.333-12 17.333-12 17.333s-12-8-12-17.333c0-3.183 1.264-6.235 3.515-8.485s5.303-3.515 8.485-3.515c3.183 0 6.235 1.264 8.485 3.515s3.515 5.303 3.515 8.485z">
            </path>
            <path stroke-linejoin="round" stroke-linecap="round" stroke-miterlimit="4" stroke-width="2.6667"
                d="M16 17.333c2.209 0 4-1.791 4-4s-1.791-4-4-4c-2.209 0-4 1.791-4 4s1.791 4 4 4z"></path>
        </symbol>
        <symbol id="chevron-up" viewBox="0 0 32 32">
            <path stroke-linejoin="round" stroke-linecap="round" stroke-miterlimit="4" stroke-width="2.6667"
                d="M8 20l8-8 8 8"></path>
        </symbol>
        <symbol id="youtube" viewBox="0 0 32 32">
            <path
                d="M24.239 5.999c-1.36-0.080-4.16-0.16-8.4-0.16h-0.56c-4.080 0-6.8 0.080-8.16 0.24-1.84 0.16-3.12 0.64-3.84 1.28-0.64 0.56-1.12 1.6-1.28 2.96-0.080 0.88-0.16 2.72-0.16 5.52v0.4c0 2.64 0.080 4.48 0.24 5.36 0.24 1.28 0.64 2.24 1.44 2.8 0.8 0.64 2.16 1.040 4.080 1.2 1.36 0.080 4.16 0.16 8.4 0.16h0.56c4.080 0 6.8-0.080 8.16-0.24 1.84-0.16 3.12-0.64 3.84-1.28 0.64-0.56 1.12-1.6 1.28-2.96 0.080-0.88 0.16-2.72 0.16-5.52v-0.4c0-2.64-0.080-4.48-0.24-5.36-0.24-1.28-0.64-2.24-1.44-2.8-0.8-0.64-2.16-1.040-4.080-1.2zM21.119 15.839l-8.8 5.28v-10.56l8.8 5.28z">
            </path>
        </symbol>
        <symbol id="Vector" viewBox="0 0 18 32">
            <path
                d="M5.228 17.625c-0.214-0.212-0.384-0.465-0.5-0.744s-0.176-0.577-0.176-0.879c0-0.302 0.060-0.601 0.176-0.879s0.286-0.531 0.5-0.744l10.491-10.469c0.214-0.212 0.384-0.465 0.5-0.744s0.176-0.577 0.176-0.879c0-0.302-0.060-0.601-0.176-0.879s-0.286-0.531-0.5-0.744c-0.428-0.426-1.008-0.665-1.611-0.665s-1.183 0.239-1.611 0.665l-10.491 10.491c-1.284 1.286-2.005 3.029-2.005 4.846s0.721 3.56 2.005 4.846l10.491 10.491c0.426 0.422 1 0.66 1.6 0.663 0.301 0.002 0.599-0.056 0.877-0.17s0.532-0.281 0.745-0.493c0.214-0.212 0.384-0.465 0.5-0.744s0.176-0.577 0.176-0.879c0-0.302-0.060-0.6-0.176-0.879s-0.286-0.531-0.5-0.744l-10.491-10.469z">
            </path>
        </symbol>
        <symbol id="Vector-1" viewBox="0 0 16 32">
            <path
                d="M10.86 17.135c0.208-0.207 0.374-0.452 0.486-0.723s0.171-0.561 0.171-0.855c0-0.293-0.058-0.584-0.171-0.855s-0.278-0.517-0.486-0.723l-10.2-10.178c-0.208-0.207-0.374-0.452-0.486-0.723s-0.171-0.561-0.171-0.855c0-0.293 0.058-0.584 0.171-0.855s0.278-0.517 0.486-0.723c0.416-0.414 0.98-0.646 1.567-0.646s1.15 0.232 1.567 0.646l10.2 10.2c1.248 1.25 1.95 2.944 1.95 4.711s-0.701 3.461-1.95 4.711l-10.2 10.2c-0.414 0.41-0.973 0.642-1.556 0.644-0.292 0.002-0.582-0.054-0.853-0.165s-0.517-0.274-0.725-0.479c-0.208-0.207-0.374-0.453-0.486-0.723s-0.171-0.561-0.171-0.855 0.058-0.584 0.171-0.855c0.113-0.271 0.278-0.517 0.486-0.723l10.2-10.178z">
            </path>
        </symbol>
        <symbol id="eye-off" viewBox="0 0 32 32">
            <path stroke-linejoin="round" stroke-linecap="round" stroke-miterlimit="4" stroke-width="2.9091"
                d="M23.922 23.92c-2.279 1.737-5.055 2.7-7.92 2.747-9.333 0-14.667-10.667-14.667-10.667 1.659-3.091 3.959-5.791 6.747-7.92M13.202 5.653c0.918-0.215 1.857-0.322 2.8-0.32 9.333 0 14.667 10.667 14.667 10.667-0.809 1.514-1.775 2.94-2.88 4.253M18.828 18.827c-0.366 0.393-0.808 0.708-1.298 0.927s-1.020 0.336-1.557 0.346c-0.537 0.009-1.071-0.089-1.569-0.291s-0.951-0.5-1.33-0.88c-0.38-0.38-0.679-0.832-0.88-1.33s-0.3-1.032-0.29-1.569c0.009-0.537 0.127-1.067 0.346-1.557s0.534-0.932 0.927-1.298">
            </path>
            <path stroke-linejoin="round" stroke-linecap="round" stroke-miterlimit="4" stroke-width="2.9091"
                d="M1.335 1.333l29.333 29.333"></path>
        </symbol>
        <symbol id="eye" viewBox="0 0 32 32">
            <path stroke-linejoin="round" stroke-linecap="round" stroke-miterlimit="4" stroke-width="2.9091"
                d="M1.332 16c0 0 5.333-10.667 14.667-10.667s14.667 10.667 14.667 10.667-5.333 10.667-14.667 10.667c-9.333 0-14.667-10.667-14.667-10.667z">
            </path>
            <path stroke-linejoin="round" stroke-linecap="round" stroke-miterlimit="4" stroke-width="2.9091"
                d="M16 20c2.209 0 4-1.791 4-4s-1.791-4-4-4c-2.209 0-4 1.791-4 4s1.791 4 4 4z"></path>
        </symbol>
    </defs>
</svg>